<svg width="26" height="20" viewBox="0 0 26 20" fill="none" xmlns="http://www.w3.org/2000/svg">
<path d="M8.91666 15.25L23.0417 1.125C23.375 0.791667 23.7639 0.625 24.2083 0.625C24.6528 0.625 25.0417 0.791667 25.375 1.125C25.7083 1.45833 25.875 1.85444 25.875 2.31333C25.875 2.77222 25.7083 3.16778 25.375 3.5L10.0833 18.8333C9.75 19.1667 9.36111 19.3333 8.91666 19.3333C8.47222 19.3333 8.08333 19.1667 7.75 18.8333L0.583331 11.6667C0.249998 11.3333 0.0899978 10.9378 0.103331 10.48C0.116665 10.0222 0.290553 9.62611 0.624997 9.29167C0.959442 8.95722 1.35555 8.79056 1.81333 8.79167C2.27111 8.79278 2.66666 8.95944 3 9.29167L8.91666 15.25Z" fill="#F5F8FF"/>
</svg>
