<svg width="26" height="25" viewBox="0 0 26 25" fill="none" xmlns="http://www.w3.org/2000/svg">
<rect x="0.5" y="0.5" width="25" height="24" rx="5" fill="#636363"/>
<path d="M18.625 8.23755C16.5438 8.0313 14.45 7.92505 12.3625 7.92505C11.125 7.92505 9.8875 7.98755 8.65 8.11255L7.375 8.23755" stroke="white" stroke-width="1.5" stroke-linecap="round" stroke-linejoin="round"/>
<path d="M10.8125 7.60625L10.95 6.7875C11.05 6.19375 11.125 5.75 12.1812 5.75H13.8188C14.875 5.75 14.9562 6.21875 15.05 6.79375L15.1875 7.60625" stroke="white" stroke-width="1.5" stroke-linecap="round" stroke-linejoin="round"/>
<path d="M17.2813 10.2124L16.875 16.5062C16.8063 17.4874 16.75 18.2499 15.0063 18.2499H10.9938C9.25 18.2499 9.19375 17.4874 9.125 16.5062L8.71875 10.2124" stroke="white" stroke-width="1.5" stroke-linecap="round" stroke-linejoin="round"/>
<path d="M11.9563 14.8125H14.0375" stroke="white" stroke-width="1.5" stroke-linecap="round" stroke-linejoin="round"/>
<path d="M11.4375 12.3125H14.5625" stroke="white" stroke-width="1.5" stroke-linecap="round" stroke-linejoin="round"/>
</svg>
