<svg width="26" height="25" viewBox="0 0 26 25" fill="none" xmlns="http://www.w3.org/2000/svg">
<rect x="0.5" y="0.5" width="25" height="24" rx="5" fill="#636363"/>
<path d="M12.375 6.75H11.125C8 6.75 6.75 8 6.75 11.125V14.875C6.75 18 8 19.25 11.125 19.25H14.875C18 19.25 19.25 18 19.25 14.875V13.625" stroke="white" stroke-width="1.5" stroke-linecap="round" stroke-linejoin="round"/>
<path d="M15.525 7.38754L10.6 12.3125C10.4125 12.5 10.225 12.8688 10.1875 13.1375L9.9188 15.0188C9.8188 15.7 10.3 16.175 10.9813 16.0813L12.8625 15.8125C13.125 15.775 13.4938 15.5875 13.6875 15.4L18.6125 10.475C19.4625 9.62504 19.8625 8.63754 18.6125 7.38754C17.3625 6.13754 16.375 6.53754 15.525 7.38754Z" stroke="white" stroke-width="1.5" stroke-miterlimit="10" stroke-linecap="round" stroke-linejoin="round"/>
<path d="M14.8187 8.09375C15.2375 9.5875 16.4062 10.7563 17.9062 11.1813" stroke="white" stroke-width="1.5" stroke-miterlimit="10" stroke-linecap="round" stroke-linejoin="round"/>
</svg>
