<svg width="20" height="20" viewBox="0 0 20 20" fill="none" xmlns="http://www.w3.org/2000/svg">
<path d="M10.002 1.80113C12.6744 1.80113 12.9908 1.81285 14.0418 1.85974C15.0186 1.90272 15.546 2.06681 15.8976 2.20356C16.3626 2.38328 16.6986 2.60207 17.0463 2.9498C17.3979 3.30143 17.6128 3.63352 17.7925 4.09846C17.9293 4.45009 18.0934 4.98144 18.1364 5.95429C18.1832 7.00918 18.195 7.32565 18.195 9.99414C18.195 12.6665 18.1832 12.983 18.1364 14.034C18.0934 15.0107 17.9293 15.5382 17.7925 15.8898C17.6128 16.3548 17.394 16.6908 17.0463 17.0385C16.6947 17.3901 16.3626 17.605 15.8976 17.7847C15.546 17.9215 15.0147 18.0856 14.0418 18.1285C12.9869 18.1754 12.6704 18.1871 10.002 18.1871C7.32956 18.1871 7.01309 18.1754 5.9621 18.1285C4.98535 18.0856 4.4579 17.9215 4.10627 17.7847C3.64134 17.605 3.30533 17.3862 2.95761 17.0385C2.60598 16.6869 2.39109 16.3548 2.21137 15.8898C2.07462 15.5382 1.91053 15.0068 1.86755 14.034C1.82067 12.9791 1.80895 12.6626 1.80895 9.99414C1.80895 7.32174 1.82067 7.00527 1.86755 5.95429C1.91053 4.97753 2.07462 4.45009 2.21137 4.09846C2.39109 3.63352 2.60988 3.29752 2.95761 2.9498C3.30924 2.59816 3.64134 2.38328 4.10627 2.20356C4.4579 2.06681 4.98926 1.90272 5.9621 1.85974C7.01309 1.81285 7.32956 1.80113 10.002 1.80113ZM10.002 0C7.28658 0 6.94667 0.011721 5.88006 0.0586052C4.81735 0.105489 4.08674 0.277398 3.4538 0.52354C2.79351 0.781403 2.23481 1.12131 1.68002 1.68002C1.12131 2.23481 0.781403 2.79351 0.52354 3.44989C0.277398 4.08674 0.105489 4.81344 0.0586052 5.87615C0.011721 6.94667 0 7.28658 0 10.002C0 12.7173 0.011721 13.0572 0.0586052 14.1239C0.105489 15.1866 0.277398 15.9172 0.52354 16.5501C0.781403 17.2104 1.12131 17.7691 1.68002 18.3239C2.23481 18.8787 2.79351 19.2225 3.44989 19.4765C4.08674 19.7226 4.81344 19.8945 5.87615 19.9414C6.94276 19.9883 7.28267 20 9.99805 20C12.7134 20 13.0533 19.9883 14.1199 19.9414C15.1827 19.8945 15.9133 19.7226 16.5462 19.4765C17.2026 19.2225 17.7613 18.8787 18.3161 18.3239C18.8709 17.7691 19.2147 17.2104 19.4686 16.554C19.7148 15.9172 19.8867 15.1905 19.9336 14.1278C19.9805 13.0611 19.9922 12.7212 19.9922 10.0059C19.9922 7.29049 19.9805 6.95058 19.9336 5.88396C19.8867 4.82125 19.7148 4.09064 19.4686 3.45771C19.2225 2.79351 18.8826 2.23481 18.3239 1.68002C17.7691 1.12522 17.2104 0.781403 16.554 0.527447C15.9172 0.281305 15.1905 0.109396 14.1278 0.0625122C13.0572 0.011721 12.7173 0 10.002 0Z" fill="#333333"/>
<path d="M10.002 4.86423C7.16546 4.86423 4.86423 7.16546 4.86423 10.002C4.86423 12.8384 7.16546 15.1397 10.002 15.1397C12.8384 15.1397 15.1397 12.8384 15.1397 10.002C15.1397 7.16546 12.8384 4.86423 10.002 4.86423ZM10.002 13.3346C8.16175 13.3346 6.66927 11.8422 6.66927 10.002C6.66927 8.16175 8.16175 6.66927 10.002 6.66927C11.8422 6.66927 13.3346 8.16175 13.3346 10.002C13.3346 11.8422 11.8422 13.3346 10.002 13.3346Z" fill="#333333"/>
<path d="M16.5423 4.66103C16.5423 5.32522 16.0031 5.86049 15.3428 5.86049C14.6786 5.86049 14.1434 5.32132 14.1434 4.66103C14.1434 3.99684 14.6826 3.46158 15.3428 3.46158C16.0031 3.46158 16.5423 4.00074 16.5423 4.66103Z" fill="#333333"/>
</svg>
