<svg width="26" height="25" viewBox="0 0 26 25" fill="none" xmlns="http://www.w3.org/2000/svg">
<rect x="0.5" y="0.5" width="25" height="24" rx="5" fill="#636363"/>
<path d="M15.2375 13C15.2375 14.2375 14.2375 15.2375 13 15.2375C11.7625 15.2375 10.7625 14.2375 10.7625 13C10.7625 11.7625 11.7625 10.7625 13 10.7625C14.2375 10.7625 15.2375 11.7625 15.2375 13Z" stroke="white" stroke-width="1.5" stroke-linecap="round" stroke-linejoin="round"/>
<path d="M13 18.1687C15.2063 18.1687 17.2625 16.8687 18.6938 14.6187C19.2563 13.7375 19.2563 12.2562 18.6938 11.375C17.2625 9.12495 15.2063 7.82495 13 7.82495C10.7938 7.82495 8.73752 9.12495 7.30627 11.375C6.74377 12.2562 6.74377 13.7375 7.30627 14.6187C8.73752 16.8687 10.7938 18.1687 13 18.1687Z" stroke="white" stroke-width="1.5" stroke-linecap="round" stroke-linejoin="round"/>
</svg>
