<svg width="16" height="17" viewBox="0 0 16 17" fill="none" xmlns="http://www.w3.org/2000/svg">
<path fill-rule="evenodd" clip-rule="evenodd" d="M1.60612 4.36444C1.62018 5.076 1.23299 6.03788 0.729555 6.54038C0.262405 7.00798 0 7.64191 0 8.30288C0 8.96385 0.262405 9.59778 0.729555 10.0654C1.22643 10.5604 1.59206 11.4191 1.60612 12.1204C1.61924 12.741 1.86206 13.3579 2.33549 13.8304C2.77229 14.2681 3.35661 14.5271 3.97424 14.5569C4.71581 14.5944 5.68706 15.0257 6.21206 15.5507C6.67962 16.0176 7.31335 16.2798 7.97409 16.2798C8.63483 16.2798 9.26856 16.0176 9.73612 15.5507C10.2611 15.0257 11.2324 14.5944 11.9739 14.5569C12.5916 14.5271 13.1759 14.2681 13.6127 13.8304C14.068 13.3756 14.3292 12.7619 14.3411 12.1185C14.3552 11.4191 14.7161 10.566 15.2121 10.071C15.681 9.60355 15.945 8.96897 15.9461 8.30685C15.9471 7.64474 15.6851 7.00932 15.2177 6.54038C14.7152 6.03881 14.3271 5.076 14.3421 4.36538C14.3491 4.02986 14.2881 3.69639 14.1628 3.38509C14.0374 3.07379 13.8503 2.79112 13.6127 2.55413C13.3664 2.30723 13.071 2.11493 12.7455 1.98975C12.42 1.86457 12.0719 1.80931 11.7236 1.82756C11.0542 1.86131 10.2096 1.53694 9.73612 1.06256C9.26852 0.595413 8.63459 0.333008 7.97362 0.333008C7.31265 0.333008 6.67872 0.595413 6.21112 1.06256C5.73862 1.536 4.89299 1.86131 4.22362 1.82756C3.87554 1.80944 3.52754 1.86477 3.20225 1.98995C2.87695 2.11512 2.58164 2.30735 2.33549 2.55413C2.098 2.79101 1.91094 3.07353 1.78559 3.38466C1.66024 3.69579 1.59919 4.02908 1.60612 4.36444ZM10.8199 5.13881C10.9276 5.19856 11.0224 5.27895 11.099 5.37537C11.1756 5.47179 11.2325 5.58236 11.2664 5.70076C11.3002 5.81916 11.3104 5.94308 11.2964 6.06543C11.2824 6.18777 11.2444 6.30616 11.1846 6.41381L8.58956 11.0844C8.52234 11.2116 8.42675 11.3217 8.31018 11.406C8.14079 11.5286 7.9353 11.591 7.72636 11.5833C7.51742 11.5757 7.31704 11.4984 7.15706 11.3638L4.57049 9.29475C4.47434 9.2178 4.39429 9.12267 4.3349 9.01479C4.27551 8.9069 4.23796 8.78838 4.22438 8.66598C4.21079 8.54358 4.22146 8.4197 4.25575 8.30142C4.29004 8.18314 4.3473 8.07278 4.42424 7.97663C4.50119 7.88047 4.59632 7.80042 4.70421 7.74103C4.81209 7.68164 4.93062 7.64409 5.05302 7.63051C5.17542 7.61693 5.29929 7.62759 5.41757 7.66188C5.53585 7.69618 5.64622 7.75343 5.74237 7.83038L7.47956 9.22069L9.54487 5.50256C9.6047 5.39496 9.68514 5.30019 9.78159 5.22368C9.87805 5.14716 9.98863 5.09039 10.107 5.05661C10.2254 5.02284 10.3493 5.01271 10.4716 5.02681C10.5939 5.04092 10.7123 5.07898 10.8199 5.13881Z" fill="#6672F4"/>
</svg>
